<?xml version="1.0" standalone="no"?>
<!DOCTYPE svg PUBLIC "-//W3C//DTD SVG 1.1//EN" "http://www.w3.org/Graphics/SVG/1.1/DTD/svg11.dtd" >
<svg>
<metadata>
Created by FontForge 20090622 at Mon Apr 24 09:33:28 2017
 By deploy user
Copyright &#194;&#169; 2009 Heidelberger Druckmaschinen AG, which may be registered in certain jurisdictions, exclusively licensed through Linotype Library GmbH, a wholly owned subsidiary of Heidelberger Druckmaschinen AG. All rights reserved.
</metadata>
<defs>
<font id="FrutigerNextLT-Light" horiz-adv-x="530" >
  <font-face 
    font-family="Frutiger Next LT Light"
    font-weight="300"
    font-stretch="normal"
    units-per-em="1000"
    panose-1="2 0 5 3 8 0 0 2 0 4"
    ascent="800"
    descent="-200"
    x-height="497"
    cap-height="667"
    bbox="-154 -227 1137 884"
    underline-thickness="50"
    underline-position="-50"
    unicode-range="U+0020-U+FB02"
  />
<missing-glyph horiz-adv-x="265" 
d="M169 270h-73v80h73v-80z" />
    <glyph glyph-name="fi" unicode="fi" horiz-adv-x="496" 
d="M420 613h-54v80h54v-80zM420 0h-54v497h54v-497zM301 721l-6 -52q-21 10 -48 10q-74 0 -73 -105v-5v-72h112v-48h-112v-449h-54v449h-98v48h98v67q0 25 1.5 42.5t8.5 43t19.5 41.5t37 28t59.5 12q38 0 55 -10z" />
    <glyph glyph-name="fl" unicode="fl" horiz-adv-x="496" 
d="M420 0h-54v721h54v-721zM301 721l-6 -52q-21 10 -48 10q-74 0 -73 -105v-5v-72h112v-48h-112v-449h-54v449h-98v48h98v67q0 25 1.5 42.5t8.5 43t19.5 41.5t37 28t59.5 12q38 0 55 -10z" />
    <glyph glyph-name=".notdef" horiz-adv-x="265" 
d="M169 270h-73v80h73v-80z" />
    <glyph glyph-name=".null" horiz-adv-x="0" 
 />
    <glyph glyph-name="nonmarkingreturn" horiz-adv-x="333" 
 />
    <glyph glyph-name="space" unicode=" " horiz-adv-x="265" 
 />
    <glyph glyph-name="exclam" unicode="!" horiz-adv-x="261" 
d="M166 667l-10 -505h-51l-10 505h71zM167 0h-73v80h73v-80z" />
    <glyph glyph-name="quotedbl" unicode="&#x22;" horiz-adv-x="400" 
d="M296 459h-57v208h57v-208zM161 459h-57v208h57v-208z" />
    <glyph glyph-name="numbersign" unicode="#" 
d="M498 408h-91l-24 -149h84v-46h-91l-32 -213h-47l32 213h-166l-33 -213h-46l32 213h-84v46h91l24 149h-84v46h91l33 213h47l-33 -213h166l33 213h47l-33 -213h84v-46zM360 408h-166l-24 -149h166z" />
    <glyph glyph-name="dollar" unicode="$" 
d="M451 176q0 -75 -47.5 -123t-123.5 -60v-101h-47v97q-85 0 -146 28l5 66q58 -38 145 -38q69 0 110 33t41 99q0 43 -30 72t-89 62l-69 39q-55 31 -86.5 67t-31.5 89q0 69 46.5 112.5t116.5 54.5v101h47v-97q68 0 124 -21l-6 -60q-45 25 -121 25q-62 0 -103.5 -27t-41.5 -85
q0 -37 25 -63.5t74 -53.5l69 -39q65 -36 102 -76t37 -101z" />
    <glyph glyph-name="percent" unicode="%" horiz-adv-x="850" 
d="M797 195q0 -38 -6.5 -71t-22 -65t-46.5 -51t-74 -19q-44 0 -75 18.5t-46.5 51t-21.5 65.5t-6 71q0 37 7 70.5t22.5 65.5t46.5 51t73 19q43 0 74 -19t46.5 -51t22 -65.5t6.5 -70.5zM664 691l-424 -715h-52l424 715h52zM351 471q0 -38 -6.5 -71t-22 -65t-46.5 -51t-74 -19
q-44 0 -75 18.5t-46.5 51t-21.5 65.5t-6 71q0 37 7 70.5t22.5 65.5t46.5 51t73 19q43 0 74 -19t46.5 -51t22 -65.5t6.5 -70.5zM742 195q0 157 -94 157t-94 -157t94 -157t94 157zM297 471q0 157 -95 157q-94 0 -94 -157t94 -157q95 0 95 157z" />
    <glyph glyph-name="ampersand" unicode="&#x26;" horiz-adv-x="626" 
d="M604 320h-103v-302q-98 -29 -201 -29t-172.5 44.5t-69.5 143.5q0 71 47 117t118 51q-150 14 -150 155q0 83 67.5 130t155.5 47q71 0 147 -28l-4 -60q-69 34 -144 34q-67 0 -115.5 -32.5t-48.5 -90.5q0 -39 13.5 -65t39.5 -38.5t53 -17.5t63 -5h142v84h59v-84h103v-54z
M442 64v256h-142q-80 0 -131.5 -33.5t-51.5 -110.5q0 -50 28.5 -81t67 -41.5t87.5 -10.5q79 0 142 21z" />
    <glyph glyph-name="quotesingle" unicode="'" horiz-adv-x="265" 
d="M161 459h-57v208h57v-208z" />
    <glyph glyph-name="parenleft" unicode="(" horiz-adv-x="262" 
d="M254 -128h-42q-75 117 -117 217.5t-42 207.5t41.5 207t117.5 217h42q-47 -89 -70.5 -139t-47.5 -131.5t-24 -153.5q0 -55 11 -109.5t35 -114t42.5 -97.5t53.5 -104z" />
    <glyph glyph-name="parenright" unicode=")" horiz-adv-x="262" 
d="M209 297q0 -107 -42 -207.5t-117 -217.5h-42l71 139.5t48 131.5t24 154q0 55 -11 109t-36 114.5t-42.5 96.5t-53.5 104h42q76 -117 117.5 -217t41.5 -207z" />
    <glyph glyph-name="asterisk" unicode="*" horiz-adv-x="393" 
d="M344 541l-112 -38l69 -111l-47 -27l-57 111l-57 -111l-47 27l69 111l-113 38l18 52l108 -49l-6 123h56l-7 -123l108 49z" />
    <glyph glyph-name="plus" unicode="+" 
d="M514 217h-222v-217h-54v217h-221v49h221v217h54v-217h222v-49z" />
    <glyph glyph-name="comma" unicode="," horiz-adv-x="265" 
d="M169 80l-80 -208h-49l58 208h71z" />
    <glyph glyph-name="hyphen" unicode="-" horiz-adv-x="317" 
d="M278 283h-239v54h239v-54z" />
    <glyph glyph-name="period" unicode="." horiz-adv-x="265" 
d="M169 0h-73v80h73v-80z" />
    <glyph glyph-name="slash" unicode="/" horiz-adv-x="283" 
d="M302 667l-261 -667h-60l261 667h60z" />
    <glyph glyph-name="zero" unicode="0" 
d="M482 333q0 -48 -5 -91.5t-19.5 -91t-37.5 -82t-63 -57t-92 -22.5q-217 0 -217 344q0 47 5 91t19.5 91.5t38 82t63 57t91.5 22.5t92 -22.5t63 -57.5t37.5 -82.5t19.5 -91t5 -90.5zM419 333q0 288 -154 288t-154 -288t154 -288t154 288z" />
    <glyph glyph-name="one" unicode="1" 
d="M320 0h-60v597l-106 -93l-35 38l147 125h54v-667z" />
    <glyph glyph-name="two" unicode="2" 
d="M447 0h-395v51l156 175q37 41 54.5 62.5t48 63.5t44.5 79.5t14 73.5q0 51 -35.5 83.5t-87.5 32.5q-74 0 -161 -46l-6 58q88 44 162 44q85 0 138 -44.5t53 -127.5q0 -41 -15.5 -83t-51 -90.5t-53.5 -70l-62 -71.5l-122 -136h319v-54z" />
    <glyph glyph-name="three" unicode="3" 
d="M451 191q0 -97 -69.5 -149.5t-175.5 -52.5q-91 0 -157 26l6 60q63 -30 161 -30q71 0 121.5 38.5t50.5 107.5q0 64 -47 95.5t-113 31.5h-92v54h79q72 0 116.5 35t44.5 106q0 55 -46.5 81.5t-106.5 26.5q-79 0 -148 -33l-6 59q81 30 160 30q86 0 147.5 -41t61.5 -123
q0 -63 -38.5 -106t-101.5 -59q66 -9 109.5 -51t43.5 -106z" />
    <glyph glyph-name="four" unicode="4" 
d="M503 154h-96v-154h-60v154h-321v60l302 453h79v-459h96v-54zM347 209v396l-263 -396h263z" />
    <glyph glyph-name="five" unicode="5" 
d="M458 210q0 -103 -68.5 -162t-173.5 -59q-85 0 -145 24l6 64q60 -32 141 -32q76 0 126.5 42.5t50.5 116.5q0 76 -45 112t-122 36q-61 0 -141 -27l6 342h333v-54h-275l-6 -219q41 14 100 14q92 0 152.5 -53.5t60.5 -144.5z" />
    <glyph glyph-name="six" unicode="6" 
d="M484 208q0 -100 -58.5 -159.5t-157.5 -59.5q-52 0 -91 19.5t-61 50t-35.5 74.5t-17.5 84.5t-4 89.5q0 78 15 142.5t48 117t92 82t140 29.5q40 0 104 -17l-6 -60q-48 21 -107 21q-62 0 -108 -25t-71.5 -67.5t-37 -92.5t-11.5 -107q21 40 67 64t93 24q96 0 151.5 -57
t55.5 -153zM421 203q0 71 -37.5 115t-107.5 44q-69 0 -110.5 -41t-41.5 -110q0 -70 38 -118t107 -48q71 0 111.5 43.5t40.5 114.5z" />
    <glyph glyph-name="seven" unicode="7" 
d="M456 615l-259 -615h-66l265 613h-342v54h402v-52z" />
    <glyph glyph-name="eight" unicode="8" 
d="M488 165q0 -83 -67 -129.5t-156 -46.5t-156 46.5t-67 129.5q0 124 159 182q-135 65 -135 176q0 72 62 113t137 41q81 0 140 -39t59 -115q0 -98 -140 -176q75 -28 119.5 -70t44.5 -112zM402 517q0 52 -40.5 78t-96.5 26q-54 0 -95.5 -27.5t-41.5 -76.5q0 -27 12 -50
t36 -41.5t42.5 -30t47.5 -25.5q136 68 136 147zM425 171q0 20 -8.5 38.5t-18.5 30.5t-31.5 26.5t-32.5 21t-37.5 19.5l-32.5 16q-34 -13 -57 -25t-49 -30.5t-39.5 -42.5t-13.5 -54q0 -61 47 -93.5t113 -32.5t113 32.5t47 93.5z" />
    <glyph glyph-name="nine" unicode="9" 
d="M473 402q0 -92 -14.5 -163t-47.5 -129.5t-92.5 -89.5t-144.5 -31q-31 0 -103 17l6 60q46 -21 107 -21q51 0 90 16t62.5 40.5t39.5 64t23 76t12 86.5q-24 -41 -66 -62.5t-91 -21.5q-96 0 -152 58.5t-56 154.5t61.5 158t154.5 62q103 0 157 -79t54 -196zM405 454
q0 70 -37.5 118.5t-106.5 48.5q-71 0 -111.5 -43t-40.5 -115q0 -73 36 -118t107 -45q70 0 111.5 42t41.5 112z" />
    <glyph glyph-name="colon" unicode=":" horiz-adv-x="265" 
d="M169 417h-73v80h73v-80zM169 0h-73v80h73v-80z" />
    <glyph glyph-name="semicolon" unicode=";" horiz-adv-x="265" 
d="M168 417h-73v80h73v-80zM169 80l-80 -208h-49l58 208h71z" />
    <glyph glyph-name="less" unicode="&#x3c;" 
d="M514 15l-497 198v54l497 200v-54l-435 -173l435 -172v-53z" />
    <glyph glyph-name="equal" unicode="=" 
d="M514 308h-497v48h497v-48zM514 125h-497v48h497v-48z" />
    <glyph glyph-name="greater" unicode="&#x3e;" 
d="M513 213l-497 -198v53l435 172l-435 173v54l497 -200v-54z" />
    <glyph glyph-name="question" unicode="?" horiz-adv-x="393" 
d="M353 507q0 -43 -17 -79t-41.5 -62l-48.5 -51.5t-41 -60.5t-17 -77v-15h-57v13q0 47 16.5 85t40 63.5l46.5 50t39.5 58.5t16.5 76q0 53 -34 83t-88 30t-134 -26l-6 58q83 24 141 24q82 0 133 -44.5t51 -125.5zM196 0h-73v80h73v-80z" />
    <glyph glyph-name="at" unicode="@" horiz-adv-x="778" 
d="M724 231q0 -102 -56 -166.5t-146 -64.5q-37 0 -63 16t-28 51q-49 -67 -126 -67q-48 0 -72.5 31.5t-24.5 80.5q0 100 70 174.5t168 74.5q38 0 83 -14l-53 -249q-1 -5 -1 -15q0 -39 58 -39q48 0 79 31.5t42 71t11 84.5q0 106 -73.5 165t-182.5 59q-124 0 -210 -86t-86 -210
q0 -127 76 -197t204 -70q96 0 205 39l6 -53q-116 -38 -223 -38q-143 0 -235 88t-92 231q0 150 107.5 249t258.5 99q124 0 214 -76t90 -200zM473 313q-16 4 -38 4q-74 0 -125.5 -64.5t-51.5 -140.5q0 -68 56 -68q48 0 82.5 41.5t46.5 94.5z" />
    <glyph glyph-name="A" unicode="A" horiz-adv-x="616" 
d="M610 0h-62l-72 185h-339l-74 -185h-57l269 667h65zM455 238l-148 373l-149 -373h297z" />
    <glyph glyph-name="B" unicode="B" horiz-adv-x="528" 
d="M470 190q0 -54 -21.5 -93t-59.5 -59t-81 -29t-95 -9h-125v667h150q92 0 152 -38.5t60 -126.5q0 -60 -33.5 -99t-92.5 -53q65 -10 105.5 -53t40.5 -107zM388 501q0 60 -41.5 86t-104.5 26h-94v-239h76q164 0 164 127zM407 185q0 137 -200 137h-59v-268h71q188 0 188 131z
" />
    <glyph glyph-name="C" unicode="C" horiz-adv-x="585" 
d="M547 19q-55 -30 -156 -30q-155 0 -246 94.5t-91 249.5q0 149 93.5 246.5t243.5 97.5q94 0 154 -27l-6 -59q-60 30 -150 30q-126 0 -199 -81t-73 -207q0 -129 71.5 -208.5t200.5 -79.5q92 0 152 30z" />
    <glyph glyph-name="D" unicode="D" horiz-adv-x="637" 
d="M583 333q0 -172 -102.5 -252.5t-279.5 -80.5h-113v667h154q162 0 251.5 -86.5t89.5 -247.5zM520 333q0 132 -72.5 206t-203.5 74h-96v-559h56q155 0 235.5 65t80.5 214z" />
    <glyph glyph-name="E" unicode="E" horiz-adv-x="466" 
d="M418 0h-330v667h319v-54h-259v-244h245v-52h-245v-263h270v-54z" />
    <glyph glyph-name="F" unicode="F" horiz-adv-x="435" 
d="M397 613h-249v-244h238v-52h-238v-317h-60v667h309v-54z" />
    <glyph glyph-name="G" unicode="G" horiz-adv-x="662" 
d="M596 32q-98 -43 -205 -43q-155 0 -246 94.5t-91 249.5q0 151 93 247.5t244 96.5q105 0 174 -34l-6 -58q-65 36 -171 36q-126 0 -198.5 -80.5t-72.5 -207.5q0 -130 72.5 -209t202.5 -79q80 0 144 25v238h-160v53h220v-329z" />
    <glyph glyph-name="H" unicode="H" horiz-adv-x="638" 
d="M550 0h-60v317h-342v-317h-60v667h60v-296h342v296h60v-667z" />
    <glyph glyph-name="I" unicode="I" horiz-adv-x="236" 
d="M148 0h-60v667h60v-667z" />
    <glyph glyph-name="J" unicode="J" horiz-adv-x="304" 
d="M224 171q0 -82 -37 -132t-116 -50q-35 0 -67 12l6 53q21 -9 57 -9q52 0 74.5 34.5t22.5 87.5v500h60v-496z" />
    <glyph glyph-name="K" unicode="K" horiz-adv-x="565" 
d="M559 0h-83l-328 337v-337h-60v667h60v-304l306 304h77l-325 -313z" />
    <glyph glyph-name="L" unicode="L" horiz-adv-x="431" 
d="M413 0h-325v667h60v-613h265v-54z" />
    <glyph glyph-name="M" unicode="M" horiz-adv-x="851" 
d="M763 0h-60v611l-248 -611h-61l-248 611v-611h-58v667h94l244 -599l243 599h94v-667z" />
    <glyph glyph-name="N" unicode="N" horiz-adv-x="658" 
d="M570 0h-82l-342 596v-596h-58v667h82l342 -596v596h58v-667z" />
    <glyph glyph-name="O" unicode="O" horiz-adv-x="692" 
d="M638 333q0 -93 -30.5 -169t-98.5 -125.5t-163 -49.5q-145 0 -218.5 97.5t-73.5 246.5q0 144 76 244t216 100q74 0 131 -27.5t91.5 -75.5t52 -109t17.5 -132zM575 333q0 118 -58 203t-171 85q-58 0 -103 -25t-72 -67t-40.5 -92t-13.5 -104q0 -116 59 -202t170 -86
q113 0 171 85t58 203z" />
    <glyph glyph-name="P" unicode="P" horiz-adv-x="482" 
d="M452 481q0 -93 -63.5 -141.5t-152.5 -48.5h-88v-291h-60v667h154q93 0 151.5 -48t58.5 -138zM389 480q0 63 -37 98t-101 35h-103v-268h50q34 0 58.5 2t51 10.5t43 22.5t27.5 39.5t11 60.5z" />
    <glyph glyph-name="Q" unicode="Q" horiz-adv-x="692" 
d="M638 333q0 -110 -44.5 -197t-129.5 -124l140 -140h-83l-121 121q-23 -4 -54 -4q-145 0 -218.5 97.5t-73.5 246.5q0 144 76 244t216 100q74 0 131 -27.5t91.5 -75.5t52 -109t17.5 -132zM575 333q0 118 -58 203t-171 85q-58 0 -103 -25t-72 -67t-40.5 -92t-13.5 -104
q0 -116 59 -202t170 -86q113 0 171 85t58 203z" />
    <glyph glyph-name="R" unicode="R" horiz-adv-x="525" 
d="M501 0h-69l-99 228q-24 55 -48 72t-83 17h-54v-317h-60v667h160q88 0 144.5 -43t56.5 -130q0 -60 -44 -102.5t-106 -50.5q32 -6 51.5 -26.5t34.5 -54.5zM386 496q0 67 -43.5 92t-120.5 25h-74v-242h70q68 0 118 30.5t50 94.5z" />
    <glyph glyph-name="S" unicode="S" horiz-adv-x="465" 
d="M418 176q0 -86 -62 -136.5t-155 -50.5q-86 0 -147 28l5 66q58 -38 145 -38q69 0 110 33t41 99q0 43 -30 72t-89 62l-69 39q-55 31 -86.5 67t-31.5 89q0 81 62 126t147 45q69 0 125 -21l-6 -60q-45 25 -121 25q-62 0 -103.5 -27t-41.5 -85q0 -37 25 -63.5t74 -53.5l69 -39
q65 -36 102 -76t37 -101z" />
    <glyph glyph-name="T" unicode="T" horiz-adv-x="471" 
d="M461 613h-196v-613h-60v613h-195v54h451v-54z" />
    <glyph glyph-name="U" unicode="U" horiz-adv-x="638" 
d="M558 232q0 -111 -64.5 -177t-174.5 -66q-112 0 -175.5 65.5t-63.5 177.5v435h60v-435q0 -86 47 -136.5t132 -50.5t132 50.5t47 136.5v435h60v-435z" />
    <glyph glyph-name="V" unicode="V" horiz-adv-x="580" 
d="M572 667l-251 -667h-63l-250 667h63l220 -610l222 610h59z" />
    <glyph glyph-name="W" unicode="W" horiz-adv-x="904" 
d="M892 667l-193 -667h-74l-171 605l-173 -605h-75l-194 667h64l169 -605l173 605h75l172 -605l169 605h58z" />
    <glyph glyph-name="X" unicode="X" horiz-adv-x="581" 
d="M571 0h-72l-206 312l-216 -312h-67l248 351l-225 316h70l191 -275l189 275h66l-221 -316z" />
    <glyph glyph-name="Y" unicode="Y" horiz-adv-x="562" 
d="M558 667l-248 -381v-286h-60v286l-246 381h68l210 -330l210 330h66z" />
    <glyph glyph-name="Z" unicode="Z" horiz-adv-x="475" 
d="M449 0h-423v51l350 562h-338v54h403v-51l-348 -562h356v-54z" />
    <glyph glyph-name="bracketleft" unicode="[" horiz-adv-x="260" 
d="M244 -128h-149v849h149v-43h-93v-763h93v-43z" />
    <glyph glyph-name="backslash" unicode="\" horiz-adv-x="283" 
d="M302 0h-60l-261 667h60z" />
    <glyph glyph-name="bracketright" unicode="]" horiz-adv-x="260" 
d="M166 -128h-150v43h94v763h-94v43h150v-849z" />
    <glyph glyph-name="asciicircum" unicode="^" 
d="M459 252h-57l-138 352l-135 -352h-58l168 415h53z" />
    <glyph glyph-name="underscore" unicode="_" horiz-adv-x="500" 
d="M500 -125h-500v50h500v-50z" />
    <glyph glyph-name="grave" unicode="`" horiz-adv-x="206" 
d="M145 585h-48l-93 136h70z" />
    <glyph glyph-name="a" unicode="a" horiz-adv-x="478" 
d="M407 0h-53l-3 81q-19 -43 -62.5 -67.5t-91.5 -24.5q-70 0 -115.5 36t-45.5 104q0 90 75 131t201 41h34v26q0 63 -25 96t-86 33q-83 0 -141 -39l-6 56q70 34 145 34q88 0 127.5 -46.5t39.5 -137.5v-220q0 -55 7 -103zM346 222v31h-13q-46 0 -79 -3.5t-74 -14.5t-63 -37.5
t-22 -67.5q0 -44 30 -67t76 -23q145 0 145 182z" />
    <glyph glyph-name="b" unicode="b" horiz-adv-x="529" 
d="M484 250q0 -68 -18.5 -124.5t-65.5 -96.5t-117 -40q-107 0 -155 94l-2 -83h-50v721h54v-308q18 42 61.5 68t91.5 26q55 0 95.5 -21t62.5 -58.5t32.5 -81.5t10.5 -96zM425 250q0 40 -6.5 74t-22 65t-45.5 48.5t-73 17.5q-75 0 -112.5 -62.5t-37.5 -142.5q0 -51 13.5 -96
t49 -79t87.5 -34q42 0 72 18.5t45.5 50.5t22.5 66.5t7 73.5z" />
    <glyph glyph-name="c" unicode="c" horiz-adv-x="434" 
d="M399 8q-54 -19 -123 -19q-108 0 -169.5 75.5t-61.5 185.5q0 111 64 184t174 73q56 0 116 -21l-5 -56q-53 25 -105 25q-90 0 -137.5 -57t-47.5 -148q0 -86 48 -147.5t132 -61.5q51 0 110 22z" />
    <glyph glyph-name="d" unicode="d" horiz-adv-x="529" 
d="M458 0h-50l-7 83q-48 -94 -155 -94q-70 0 -117 40t-65.5 96.5t-18.5 124.5q0 110 49.5 183.5t154.5 73.5q48 0 90 -25.5t60 -68.5v308h54v-558q0 -71 5 -163zM401 250q0 80 -37.5 142.5t-112.5 62.5q-43 0 -73 -17.5t-45.5 -48.5t-22 -65t-6.5 -74q0 -39 7 -73.5
t22.5 -66.5t45.5 -50.5t72 -18.5q52 0 87.5 34t49 79t13.5 96z" />
    <glyph glyph-name="e" unicode="e" horiz-adv-x="479" 
d="M437 233h-333q0 -81 42 -137t121 -56q76 0 138 36l6 -61q-62 -26 -145 -26q-113 0 -167 72t-54 189q0 63 22.5 120.5t70.5 97t110 39.5q95 0 142 -70t47 -174v-30zM378 281q0 70 -31.5 122.5t-97.5 52.5t-105.5 -57t-39.5 -118h274z" />
    <glyph glyph-name="f" unicode="f" horiz-adv-x="303" 
d="M301 721l-6 -52q-21 10 -48 10q-74 0 -73 -105v-5v-72h112v-48h-112v-449h-54v449h-98v48h98v67q0 25 1.5 42.5t8.5 43t19.5 41.5t37 28t59.5 12q38 0 55 -10z" />
    <glyph glyph-name="g" unicode="g" horiz-adv-x="529" 
d="M453 23q0 -250 -223 -250q-64 0 -145 26l6 61q68 -35 142 -35q87 0 126.5 53.5t39.5 143.5v67q-21 -41 -63.5 -65t-89.5 -24q-70 0 -117 38.5t-65.5 92.5t-18.5 119q0 110 50 183.5t153 73.5q107 0 155 -94v84h50v-474zM401 250q0 80 -37 142.5t-112 62.5
q-81 0 -114.5 -59t-33.5 -146q0 -37 7 -69.5t22.5 -63t45.5 -48t72 -17.5q52 0 87.5 32.5t49 75t13.5 90.5z" />
    <glyph glyph-name="h" unicode="h" horiz-adv-x="526" 
d="M450 0h-54v296q0 74 -25 116.5t-94 42.5q-77 0 -112 -54t-35 -135v-266h-54v721h54v-308q49 94 154 94q166 0 166 -203v-304z" />
    <glyph glyph-name="i" unicode="i" horiz-adv-x="206" 
d="M130 613h-54v80h54v-80zM130 0h-54v497h54v-497z" />
    <glyph glyph-name="j" unicode="j" horiz-adv-x="212" 
d="M136 613h-54v80h54v-80zM136 -89q0 -65 -23.5 -101.5t-84.5 -36.5q-31 0 -52 5l6 53q16 -6 34 -6q23 0 37 7.5t20 23t7.5 29.5t1.5 37v575h54v-586z" />
    <glyph glyph-name="k" unicode="k" horiz-adv-x="454" 
d="M449 0h-75l-244 262v-262h-54v721h54v-430l220 206h71l-237 -219z" />
    <glyph glyph-name="l" unicode="l" horiz-adv-x="206" 
d="M130 0h-54v721h54v-721z" />
    <glyph glyph-name="m" unicode="m" horiz-adv-x="792" 
d="M716 0h-54v330q0 125 -105 125q-68 0 -101 -55.5t-33 -133.5v-266h-54v330q0 125 -105 125q-68 0 -101 -55.5t-33 -133.5v-266h-54v379q0 69 -5 118h49l3 -87q51 97 147 97q58 0 96 -32t47 -74q17 46 59.5 76t90.5 30q71 0 112 -46t41 -118v-343z" />
    <glyph glyph-name="n" unicode="n" horiz-adv-x="526" 
d="M450 0h-54v296q0 74 -25 116.5t-94 42.5q-77 0 -112 -54t-35 -135v-266h-54v379q0 69 -5 118h49l3 -87q55 97 161 97q166 0 166 -203v-304z" />
    <glyph glyph-name="o" unicode="o" horiz-adv-x="540" 
d="M495 250q0 -111 -58.5 -186t-166.5 -75q-109 0 -167 75t-58 186q0 108 60.5 182.5t164.5 74.5q110 0 167.5 -72t57.5 -185zM436 250q0 87 -41 146t-125 59q-82 0 -124 -60t-42 -145q0 -84 42 -146.5t124 -62.5t124 62t42 147z" />
    <glyph glyph-name="p" unicode="p" horiz-adv-x="529" 
d="M484 250q0 -68 -18.5 -124.5t-65.5 -96.5t-117 -40q-50 0 -92.5 24.5t-60.5 67.5v-297h-54v540q0 76 -5 173h51l4 -88q19 43 63.5 70.5t93.5 27.5q55 0 95.5 -21t62.5 -58.5t32.5 -81.5t10.5 -96zM425 250q0 40 -6.5 74t-22 65t-45.5 48.5t-73 17.5q-75 0 -112.5 -62.5
t-37.5 -142.5q0 -51 13.5 -96t49 -79t87.5 -34q42 0 72 18.5t45.5 50.5t22.5 66.5t7 73.5z" />
    <glyph glyph-name="q" unicode="q" horiz-adv-x="529" 
d="M453 -216h-54v299q-18 -43 -61 -68.5t-92 -25.5q-70 0 -117 40t-65.5 96.5t-18.5 124.5q0 70 18.5 125.5t65.5 93.5t117 38q109 0 157 -94v84h50v-713zM401 250q0 80 -37.5 142.5t-112.5 62.5q-43 0 -73 -17.5t-45.5 -48.5t-22 -65t-6.5 -74q0 -39 7 -73.5t22.5 -66.5
t45.5 -50.5t72 -18.5q52 0 87.5 34t49 79t13.5 96z" />
    <glyph glyph-name="r" unicode="r" horiz-adv-x="312" 
d="M296 503l-4 -59q-20 6 -39 6q-37 0 -63 -19t-38 -50.5t-17 -62t-5 -64.5v-254h-54v379q0 69 -5 118h49l4 -93q16 41 51.5 72t77.5 31q29 0 43 -4z" />
    <glyph glyph-name="s" unicode="s" horiz-adv-x="373" 
d="M335 130q0 -65 -48.5 -103t-115.5 -38q-79 0 -135 22l6 61q60 -31 126 -31q44 0 76 23.5t32 65.5q0 35 -24.5 59t-59 39l-69.5 31.5t-59.5 45.5t-24.5 70q0 64 47 98t112 34q60 0 117 -22l-6 -53q-49 23 -106 23q-106 0 -106 -80q0 -26 24.5 -45.5t59.5 -35t70 -33.5
t59.5 -51.5t24.5 -79.5z" />
    <glyph glyph-name="t" unicode="t" horiz-adv-x="314" 
d="M292 3q-34 -14 -71 -14q-29 0 -49.5 9t-31.5 22.5t-17.5 36.5t-8 43.5t-1.5 50.5v298h-95v48h95v115l54 19v-134h113v-48h-113v-323q0 -85 65 -85q24 0 56 14z" />
    <glyph glyph-name="u" unicode="u" horiz-adv-x="522" 
d="M451 0h-49l-3 86q-55 -97 -160 -97q-165 0 -165 204v304h54v-296q0 -75 24.5 -117.5t93.5 -42.5q77 0 111.5 54.5t34.5 135.5v266h54v-379q0 -69 5 -118z" />
    <glyph glyph-name="v" unicode="v" horiz-adv-x="426" 
d="M414 497l-171 -497h-62l-169 497h61l141 -444l142 444h58z" />
    <glyph glyph-name="w" unicode="w" horiz-adv-x="750" 
d="M736 497l-159 -497h-65l-135 438l-136 -438h-65l-162 497h61l135 -440l137 440h65l136 -440l134 440h54z" />
    <glyph glyph-name="x" unicode="x" horiz-adv-x="429" 
d="M416 0h-68l-131 220l-139 -220h-64l173 260l-156 237h67l121 -195l119 195h63l-153 -237z" />
    <glyph glyph-name="y" unicode="y" horiz-adv-x="427" 
d="M415 497l-204 -592q-45 -132 -131 -132q-21 0 -49 7l6 54q25 -9 42 -9q57 0 95 123l11 35l-172 514h61l141 -441l142 441h58z" />
    <glyph glyph-name="z" unicode="z" horiz-adv-x="407" 
d="M377 0h-347v44l284 405h-272v48h334v-45l-285 -404h286v-48z" />
    <glyph glyph-name="braceleft" unicode="{" horiz-adv-x="261" 
d="M254 -128h-52q-46 0 -70 34t-24 82v159q0 21 -3 41t-10.5 40.5t-23.5 33.5t-38 13v44q29 0 47 24t23 50.5t5 56.5v157q0 48 24.5 81t70.5 33h51v-44h-49q-41 0 -41 -89v-154q0 -43 -22 -85t-60 -52q39 -10 60.5 -52t21.5 -86v-152q0 -91 41 -91h49v-44z" />
    <glyph glyph-name="bar" unicode="|" horiz-adv-x="217" 
d="M140 -216h-63v991h63v-991z" />
    <glyph glyph-name="braceright" unicode="}" horiz-adv-x="261" 
d="M228 275q-22 0 -38 -13t-23.5 -33.5t-10.5 -40.5t-3 -41v-159q0 -48 -24 -82t-70 -34h-52v44h49q41 0 41 91v152q0 44 21.5 86t60.5 52q-38 10 -60 52t-22 85v154q0 89 -41 89h-49v44h51q46 0 70.5 -33t24.5 -81v-157q0 -30 5 -56.5t23 -50.5t47 -24v-44z" />
    <glyph glyph-name="asciitilde" unicode="~" 
d="M526 310q-4 -55 -34.5 -92t-83.5 -37q-49 0 -146.5 37t-136.5 37q-33 0 -55 -24t-27 -59h-39q21 131 121 131q47 0 146 -37.5t136 -37.5q34 0 54.5 23.5t28.5 58.5h36z" />
    <glyph glyph-name="nbspace" unicode="&#xa0;" horiz-adv-x="265" 
 />
    <glyph glyph-name="exclamdown" unicode="&#xa1;" horiz-adv-x="261" 
d="M167 417h-73v80h73v-80zM166 -170h-71l10 505h51z" />
    <glyph glyph-name="cent" unicode="&#xa2;" 
d="M419 109q-53 -19 -105 -19v-90h-44v92q-89 12 -138 81t-49 163q0 93 50.5 159.5t136.5 80.5v91h44v-89q44 0 105 -21l-6 -56q-53 25 -98 25q-83 0 -128 -53t-45 -137q0 -80 44.5 -137t122.5 -57q45 0 104 22z" />
    <glyph glyph-name="sterling" unicode="&#xa3;" 
d="M474 657l-10 -58q-34 22 -97 22q-46 0 -76.5 -14.5t-44.5 -41.5t-19 -54.5t-5 -66.5v-52h169v-54h-169v-284h242v-54h-383v54h81v284h-77v54h77v59q0 226 207 226q66 0 105 -20z" />
    <glyph glyph-name="currency" unicode="&#xa4;" 
d="M493 138l-34 -34l-64 65q-56 -47 -130 -47q-69 0 -130 46l-63 -63l-34 34l63 63q-46 61 -46 131q0 71 45 130l-63 64l34 34l63 -64q57 45 131 45q69 0 131 -44l63 62l34 -34l-63 -63q45 -64 45 -131q0 -71 -46 -129zM423 332q0 65 -46.5 111.5t-111.5 46.5
q-66 0 -112 -46t-46 -112q0 -65 46.5 -111.5t111.5 -46.5t111.5 46.5t46.5 111.5z" />
    <glyph glyph-name="yen" unicode="&#xa5;" 
d="M496 667l-182 -343h128v-48h-149v-73h149v-48h-149v-155h-60v155h-145v48h145v73h-145v48h123l-177 343h64l167 -332l167 332h64z" />
    <glyph glyph-name="brokenbar" unicode="&#xa6;" horiz-adv-x="217" 
d="M140 379h-63v396h63v-396zM140 -216h-63v397h63v-397z" />
    <glyph glyph-name="section" unicode="&#xa7;" 
d="M442 277q0 -28 -11.5 -53t-21.5 -36l-38 -40q67 -44 67 -118q0 -71 -58 -112.5t-132 -41.5q-79 0 -160 28l6 55q68 -31 153 -31q50 0 91 27.5t41 75.5q0 50 -83 86l-120 53q-39 17 -62 49t-23 73q0 26 14.5 52.5t29 42t39.5 37.5q-31 18 -49.5 48t-18.5 65
q0 67 50.5 103.5t119.5 36.5q72 0 136 -21l-6 -56q-48 25 -117 25q-46 0 -85 -21t-39 -63q0 -21 6.5 -36.5t23.5 -27.5t25.5 -17t34.5 -17l99 -46q44 -20 66 -47.5t22 -72.5zM383 274q0 22 -14 40.5t-28.5 27t-38.5 19.5l-85 38q-28 -16 -47.5 -45t-19.5 -59q0 -50 63 -78
l112 -51q58 58 58 108z" />
    <glyph glyph-name="dieresis" unicode="&#xa8;" horiz-adv-x="206" 
d="M202 613h-54v80h54v-80zM58 613h-54v80h54v-80z" />
    <glyph glyph-name="copyright" unicode="&#xa9;" horiz-adv-x="796" 
d="M742 334q0 -143 -101 -244t-243 -101t-243 101t-101 244q0 142 100.5 242.5t243.5 100.5t243.5 -100.5t100.5 -242.5zM686 334q0 121 -84 207t-204 86t-204 -86t-84 -207t84 -208t204 -87q121 0 204.5 87t83.5 208zM529 148q-45 -20 -97 -20q-102 0 -162.5 56t-60.5 150
q0 91 62 148.5t161 57.5q50 0 97 -18l-4 -51q-45 20 -91 20q-80 0 -125 -43.5t-45 -113.5q0 -71 44.5 -114t125.5 -43q40 0 91 22z" />
    <glyph glyph-name="ordfeminine" unicode="&#xaa;" horiz-adv-x="360" 
d="M296 372h-48l-2 54q-13 -27 -42 -43.5t-60 -16.5q-49 0 -78.5 21t-29.5 63q0 56 50.5 82t130.5 26h28v11q0 63 -75 63q-52 0 -93 -24l-3 49q49 20 98 20q121 0 121 -111v-129q0 -45 3 -65zM245 517h-11q-39 0 -70.5 -5.5t-54 -20.5t-22.5 -37q0 -43 66 -43q36 0 62 26.5
t29 66.5z" />
    <glyph glyph-name="guillemotleft" unicode="&#xab;" horiz-adv-x="421" 
d="M379 55h-52l-131 199l131 198h52l-125 -198zM215 55h-52l-131 199l131 198h52l-125 -198z" />
    <glyph glyph-name="logicalnot" unicode="&#xac;" 
d="M514 125h-50v183h-447v48h497v-231z" />
    <glyph glyph-name="registered" unicode="&#xae;" horiz-adv-x="796" 
d="M742 334q0 -143 -101 -244t-243 -101t-243 101t-101 244q0 142 100.5 242.5t243.5 100.5t243.5 -100.5t100.5 -242.5zM686 334q0 120 -84 206.5t-204 86.5t-204 -86t-84 -207q0 -120 84 -207.5t204 -87.5t204 87.5t84 207.5zM555 140h-56l-58 128q-14 31 -30.5 42
t-53.5 11h-36v-181h-52v401h122q59 0 97 -26t38 -79q0 -37 -29.5 -64.5t-70.5 -32.5q41 -8 61 -51zM471 435q0 60 -106 60h-44v-128h46q104 0 104 68z" />
    <glyph glyph-name="macron" unicode="&#xaf;" horiz-adv-x="206" 
d="M217 631h-228v46h228v-46z" />
    <glyph glyph-name="degree" unicode="&#xb0;" horiz-adv-x="400" 
d="M346 536q0 -61 -42.5 -100.5t-103.5 -39.5t-103.5 39.5t-42.5 100.5t43 101t103 40t103 -40t43 -101zM301 536q0 44 -28.5 70.5t-72.5 26.5t-72.5 -26.5t-28.5 -70.5q0 -40 30.5 -68t70.5 -28t70.5 28t30.5 68z" />
    <glyph glyph-name="plusminus" unicode="&#xb1;" 
d="M514 264h-222v-178h-53v178h-222v48h222v177h53v-177h222v-48zM514 -8h-497v48h497v-48z" />
    <glyph glyph-name="twosuperior" unicode="&#xb2;" horiz-adv-x="410" 
d="M344 270h-269v46l96 91q4 4 22 20.5t25.5 24t22.5 24t21.5 28t12.5 27.5t6 30q0 31 -23 49t-57 18q-44 0 -106 -29l-3 52q61 26 110 26q57 0 95.5 -30.5t38.5 -83.5q0 -13 -4 -27t-8 -24.5t-15.5 -25t-16.5 -22t-21 -23l-20 -19.5t-21.5 -20t-18.5 -17l-74 -69h207v-46z
" />
    <glyph glyph-name="threesuperior" unicode="&#xb3;" horiz-adv-x="410" 
d="M337 386q0 -60 -48 -90.5t-119 -30.5q-63 0 -107 15l4 51q43 -17 106 -17q45 0 77 19.5t32 56.5q0 34 -30.5 49.5t-73.5 15.5h-58v46h50q44 0 74 18t30 54q0 29 -30 42t-68 13q-51 0 -97 -17l-3 48q57 18 107 18q59 0 102.5 -24.5t43.5 -74.5q0 -37 -25.5 -63.5
t-65.5 -35.5q42 -5 70.5 -30t28.5 -63z" />
    <glyph glyph-name="acute" unicode="&#xb4;" horiz-adv-x="206" 
d="M202 721l-92 -136h-49l71 136h70z" />
    <glyph glyph-name="mu" unicode="&#xb5;" 
d="M452 0h-49l-3 86q-55 -97 -160 -97q-71 0 -111 43v-248h-54v713h54v-296q0 -75 24.5 -117.5t93.5 -42.5q77 0 111.5 54.5t34.5 135.5v266h54v-379q0 -69 5 -118z" />
    <glyph glyph-name="paragraph" unicode="&#xb6;" 
d="M487 -108h-57v735h-131v-735h-57v430q-81 0 -140 47.5t-59 125.5q0 94 60 138t158 44h226v-785z" />
    <glyph glyph-name="periodcentered" unicode="&#xb7;" horiz-adv-x="265" 
d="M169 270h-73v80h73v-80z" />
    <glyph glyph-name="cedilla" unicode="&#xb8;" horiz-adv-x="206" 
d="M196 -107q0 -33 -27.5 -51t-68.5 -18q-48 0 -88 18l12 27q40 -16 68 -16q21 0 37 10.5t16 25.5q0 16 -10 25t-25 9q-27 0 -46 -8l-8 15l49 70h32l-41 -54q13 5 39 5q24 0 42.5 -16.5t18.5 -41.5z" />
    <glyph glyph-name="onesuperior" unicode="&#xb9;" horiz-adv-x="410" 
d="M237 266h-52v348l-72 -57l-26 32l104 78h46v-401z" />
    <glyph glyph-name="ordmasculine" unicode="&#xba;" horiz-adv-x="360" 
d="M332 523q0 -68 -39.5 -112.5t-111.5 -44.5q-73 0 -112.5 44.5t-39.5 112.5q0 67 40.5 110.5t111.5 43.5q73 0 112 -42.5t39 -111.5zM280 523q0 46 -24 77t-75 31q-49 0 -74.5 -32t-25.5 -76t25.5 -77.5t74.5 -33.5t74 33t25 78z" />
    <glyph glyph-name="guillemotright" unicode="&#xbb;" horiz-adv-x="421" 
d="M389 253l-131 -198h-52l125 198l-125 199h52zM225 253l-131 -198h-52l125 198l-125 199h52z" />
    <glyph glyph-name="onequarter" unicode="&#xbc;" horiz-adv-x="850" 
d="M749 92h-64v-92h-52v92h-205v51l196 258h61v-263h64v-46zM612 691l-424 -715h-52l424 715h52zM206 266h-52v348l-72 -57l-26 32l104 78h46v-401zM634 138v218l-165 -218h165z" />
    <glyph glyph-name="onehalf" unicode="&#xbd;" horiz-adv-x="850" 
d="M761 0h-269v46l96 91q4 4 22 20.5t25.5 24t22.5 24t21.5 28t12.5 27.5t6 30q0 31 -23 49t-57 18q-44 0 -106 -29l-3 52q61 26 110 26q57 0 95.5 -30.5t38.5 -83.5q0 -13 -4 -27t-8 -24.5t-15.5 -25t-16.5 -22t-21 -23l-20 -19.5t-21.5 -20t-18.5 -17l-74 -69h207v-46z
M601 691l-424 -715h-52l424 715h52zM195 266h-52v348l-72 -57l-26 32l104 78h46v-401z" />
    <glyph glyph-name="threequarters" unicode="&#xbe;" horiz-adv-x="850" 
d="M831 92h-64v-92h-52v92h-205v51l196 258h61v-263h64v-46zM694 691l-424 -715h-52l424 715h52zM316 386q0 -60 -48 -90.5t-119 -30.5q-63 0 -107 15l4 51q43 -17 106 -17q45 0 77 19.5t32 56.5q0 34 -30.5 49.5t-73.5 15.5h-58v46h50q44 0 74 18t30 54q0 29 -30 42t-68 13
q-51 0 -97 -17l-3 48q57 18 107 18q59 0 102.5 -24.5t43.5 -74.5q0 -37 -25.5 -63.5t-65.5 -35.5q42 -5 70.5 -30t28.5 -63zM716 138v218l-165 -218h165z" />
    <glyph glyph-name="questiondown" unicode="&#xbf;" horiz-adv-x="393" 
d="M270 417h-73v80h73v-80zM365 -156q-83 -24 -141 -24q-82 0 -133 44.5t-51 125.5q0 43 17 79t41 62l48.5 51.5t41.5 60.5t17 77v15h57v-13q0 -47 -16.5 -85t-40 -63.5l-46.5 -50t-39.5 -58.5t-16.5 -76q0 -53 34 -83t88 -30t134 26z" />
    <glyph glyph-name="Agrave" unicode="&#xc0;" horiz-adv-x="616" 
d="M344 724h-48l-93 136h70zM610 0h-62l-72 185h-339l-74 -185h-57l269 667h65zM455 238l-148 373l-149 -373h297z" />
    <glyph glyph-name="Aacute" unicode="&#xc1;" horiz-adv-x="616" 
d="M412 860l-93 -136h-48l71 136h70zM610 0h-62l-72 185h-339l-74 -185h-57l269 667h65zM455 238l-148 373l-149 -373h297z" />
    <glyph glyph-name="Acircumflex" unicode="&#xc2;" horiz-adv-x="616" 
d="M441 724h-57l-77 99l-77 -99h-57l103 136h62zM610 0h-62l-72 185h-339l-74 -185h-57l269 667h65zM455 238l-148 373l-149 -373h297z" />
    <glyph glyph-name="Atilde" unicode="&#xc3;" horiz-adv-x="616" 
d="M447 839q0 -33 -23.5 -63.5t-58.5 -30.5q-27 0 -60.5 20.5t-50.5 20.5q-18 0 -30.5 -15t-12.5 -31h-43q0 36 24 65t62 29q24 0 61 -20.5t50 -20.5q17 0 28 15t11 31h43zM610 0h-62l-72 185h-339l-74 -185h-57l269 667h65zM455 238l-148 373l-149 -373h297z" />
    <glyph glyph-name="Adieresis" unicode="&#xc4;" horiz-adv-x="616" 
d="M407 752h-54v80h54v-80zM263 752h-54v80h54v-80zM610 0h-62l-72 185h-339l-74 -185h-57l269 667h65zM455 238l-148 373l-149 -373h297z" />
    <glyph glyph-name="Aring" unicode="&#xc5;" horiz-adv-x="616" 
d="M401 793q0 -38 -27.5 -64.5t-66.5 -26.5t-66.5 26.5t-27.5 64.5t27.5 64.5t66.5 26.5t66.5 -26.5t27.5 -64.5zM610 0h-62l-72 185h-339l-74 -185h-57l269 667h65zM368 793q0 25 -18 42.5t-43 17.5t-43 -17.5t-18 -42.5t18 -42.5t43 -17.5q26 0 43.5 17.5t17.5 42.5z
M455 238l-148 373l-149 -373h297z" />
    <glyph glyph-name="AE" unicode="&#xc6;" horiz-adv-x="827" 
d="M779 0h-328v185h-271l-114 -185h-68l422 667h347v-54h-257v-244h243v-52h-243v-263h269v-54zM451 238v383l-238 -383h238z" />
    <glyph glyph-name="Ccedilla" unicode="&#xc7;" horiz-adv-x="585" 
d="M547 19q-56 -30 -152 -30l-32 -43q13 5 39 5q24 0 42.5 -16.5t18.5 -41.5q0 -33 -27.5 -51t-68.5 -18q-48 0 -88 18l12 27q40 -16 68 -16q21 0 36.5 10.5t15.5 25.5q0 16 -10 25t-24 9q-27 0 -46 -8l-8 15l41 60q-144 9 -227 102t-83 241q0 149 93.5 246.5t243.5 97.5
q94 0 154 -27l-6 -59q-60 30 -150 30q-126 0 -199 -81t-73 -207q0 -129 71.5 -208.5t200.5 -79.5q92 0 152 30z" />
    <glyph glyph-name="Egrave" unicode="&#xc8;" horiz-adv-x="466" 
d="M290 724h-48l-93 136h70zM418 0h-330v667h319v-54h-259v-244h245v-52h-245v-263h270v-54z" />
    <glyph glyph-name="Eacute" unicode="&#xc9;" horiz-adv-x="466" 
d="M346 860l-93 -136h-48l71 136h70zM418 0h-330v667h319v-54h-259v-244h245v-52h-245v-263h270v-54z" />
    <glyph glyph-name="Ecircumflex" unicode="&#xca;" horiz-adv-x="466" 
d="M379 724h-58l-76 99l-77 -99h-57l103 136h62zM418 0h-330v667h319v-54h-259v-244h245v-52h-245v-263h270v-54z" />
    <glyph glyph-name="Edieresis" unicode="&#xcb;" horiz-adv-x="466" 
d="M348 752h-54v80h54v-80zM204 752h-54v80h54v-80zM418 0h-330v667h319v-54h-259v-244h245v-52h-245v-263h270v-54z" />
    <glyph glyph-name="Igrave" unicode="&#xcc;" horiz-adv-x="236" 
d="M157 724h-48l-93 136h70zM149 0h-60v667h60v-667z" />
    <glyph glyph-name="Iacute" unicode="&#xcd;" horiz-adv-x="236" 
d="M220 860l-92 -136h-49l71 136h70zM148 0h-60v667h60v-667z" />
    <glyph glyph-name="Icircumflex" unicode="&#xce;" horiz-adv-x="236" 
d="M252 724h-57l-77 99l-77 -99h-57l103 136h62zM148 0h-60v667h60v-667z" />
    <glyph glyph-name="Idieresis" unicode="&#xcf;" horiz-adv-x="236" 
d="M217 752h-54v80h54v-80zM73 752h-54v80h54v-80zM148 0h-60v667h60v-667z" />
    <glyph glyph-name="Eth" unicode="&#xd0;" horiz-adv-x="637" 
d="M583 333q0 -172 -102.5 -252.5t-279.5 -80.5h-113v308h-73v54h73v305h154q162 0 251.5 -86.5t89.5 -247.5zM520 333q0 132 -72.5 206t-203.5 74h-96v-251h186v-54h-186v-254h56q155 0 235.5 65t80.5 214z" />
    <glyph glyph-name="Ntilde" unicode="&#xd1;" horiz-adv-x="658" 
d="M477 839q0 -33 -23.5 -63.5t-57.5 -30.5q-27 0 -61 20.5t-51 20.5q-18 0 -30.5 -15t-12.5 -31h-42q0 36 24 65t62 29q25 0 62 -20.5t49 -20.5q17 0 28 15t11 31h42zM570 0h-82l-342 596v-596h-58v667h82l342 -596v596h58v-667z" />
    <glyph glyph-name="Ograve" unicode="&#xd2;" horiz-adv-x="692" 
d="M376 724h-48l-93 136h70zM638 333q0 -93 -30.5 -169t-98.5 -125.5t-163 -49.5q-145 0 -218.5 97.5t-73.5 246.5q0 144 76 244t216 100q74 0 131 -27.5t91.5 -75.5t52 -109t17.5 -132zM575 333q0 118 -58 203t-171 85q-58 0 -103 -25t-72 -67t-40.5 -92t-13.5 -104
q0 -116 59 -202t170 -86q113 0 171 85t58 203z" />
    <glyph glyph-name="Oacute" unicode="&#xd3;" horiz-adv-x="692" 
d="M457 860l-93 -136h-48l71 136h70zM638 333q0 -93 -30.5 -169t-98.5 -125.5t-163 -49.5q-145 0 -218.5 97.5t-73.5 246.5q0 144 76 244t216 100q74 0 131 -27.5t91.5 -75.5t52 -109t17.5 -132zM575 333q0 118 -58 203t-171 85q-58 0 -103 -25t-72 -67t-40.5 -92
t-13.5 -104q0 -116 59 -202t170 -86q113 0 171 85t58 203z" />
    <glyph glyph-name="Ocircumflex" unicode="&#xd4;" horiz-adv-x="692" 
d="M480 724h-57l-77 99l-76 -99h-58l103 136h62zM638 333q0 -93 -30.5 -169t-98.5 -125.5t-163 -49.5q-145 0 -218.5 97.5t-73.5 246.5q0 144 76 244t216 100q74 0 131 -27.5t91.5 -75.5t52 -109t17.5 -132zM575 333q0 118 -58 203t-171 85q-58 0 -103 -25t-72 -67
t-40.5 -92t-13.5 -104q0 -116 59 -202t170 -86q113 0 171 85t58 203z" />
    <glyph glyph-name="Otilde" unicode="&#xd5;" horiz-adv-x="692" 
d="M485 839q0 -33 -23.5 -63.5t-57.5 -30.5q-27 0 -61 20.5t-51 20.5q-18 0 -30.5 -15t-12.5 -31h-42q0 36 24 65t62 29q25 0 62 -20.5t49 -20.5q17 0 28 15t11 31h42zM638 333q0 -93 -30.5 -169t-98.5 -125.5t-163 -49.5q-145 0 -218.5 97.5t-73.5 246.5q0 144 76 244
t216 100q74 0 131 -27.5t91.5 -75.5t52 -109t17.5 -132zM575 333q0 118 -58 203t-171 85q-58 0 -103 -25t-72 -67t-40.5 -92t-13.5 -104q0 -116 59 -202t170 -86q113 0 171 85t58 203z" />
    <glyph glyph-name="Odieresis" unicode="&#xd6;" horiz-adv-x="692" 
d="M445 752h-54v80h54v-80zM301 752h-54v80h54v-80zM638 333q0 -93 -30.5 -169t-98.5 -125.5t-163 -49.5q-145 0 -218.5 97.5t-73.5 246.5q0 144 76 244t216 100q74 0 131 -27.5t91.5 -75.5t52 -109t17.5 -132zM575 333q0 118 -58 203t-171 85q-58 0 -103 -25t-72 -67
t-40.5 -92t-13.5 -104q0 -116 59 -202t170 -86q113 0 171 85t58 203z" />
    <glyph glyph-name="multiply" unicode="&#xd7;" 
d="M499 44l-37 -37l-196 198l-197 -197l-37 36l197 197l-197 197l36 37l197 -198l197 197l37 -36l-197 -197z" />
    <glyph glyph-name="Oslash" unicode="&#xd8;" horiz-adv-x="692" 
d="M655 660l-79 -93q64 -90 64 -234q0 -93 -30.5 -169t-98.5 -125.5t-163 -49.5q-123 0 -199 76l-77 -90l-35 31l81 96q-62 89 -62 231q0 144 76 244t216 100q121 0 197 -74l75 88zM504 555q-60 66 -156 66q-58 0 -103 -25t-72 -67t-40.5 -92t-13.5 -104q0 -103 44 -179z
M577 333q0 108 -45 183l-341 -401q62 -70 157 -70q113 0 171 85t58 203z" />
    <glyph glyph-name="Ugrave" unicode="&#xd9;" horiz-adv-x="638" 
d="M361 724h-49l-92 136h70zM558 232q0 -111 -64.5 -177t-174.5 -66q-112 0 -175.5 65.5t-63.5 177.5v435h60v-435q0 -86 47 -136.5t132 -50.5t132 50.5t47 136.5v435h60v-435z" />
    <glyph glyph-name="Uacute" unicode="&#xda;" horiz-adv-x="638" 
d="M418 860l-93 -136h-48l71 136h70zM558 232q0 -111 -64.5 -177t-174.5 -66q-112 0 -175.5 65.5t-63.5 177.5v435h60v-435q0 -86 47 -136.5t132 -50.5t132 50.5t47 136.5v435h60v-435z" />
    <glyph glyph-name="Ucircumflex" unicode="&#xdb;" horiz-adv-x="638" 
d="M452 724h-57l-76 99l-78 -99h-57l104 136h62zM558 232q0 -111 -64.5 -177t-174.5 -66q-112 0 -175.5 65.5t-63.5 177.5v435h60v-435q0 -86 47 -136.5t132 -50.5t132 50.5t47 136.5v435h60v-435z" />
    <glyph glyph-name="Udieresis" unicode="&#xdc;" horiz-adv-x="638" 
d="M418 752h-54v80h54v-80zM274 752h-54v80h54v-80zM558 232q0 -111 -64.5 -177t-174.5 -66q-112 0 -175.5 65.5t-63.5 177.5v435h60v-435q0 -86 47 -136.5t132 -50.5t132 50.5t47 136.5v435h60v-435z" />
    <glyph glyph-name="Yacute" unicode="&#xdd;" horiz-adv-x="562" 
d="M387 860l-93 -136h-48l71 136h70zM558 667l-248 -381v-286h-60v286l-246 381h68l210 -330l210 330h66z" />
    <glyph glyph-name="Thorn" unicode="&#xde;" horiz-adv-x="482" 
d="M452 341q0 -93 -63.5 -141.5t-152.5 -48.5h-88v-151h-60v667h60v-140h94q93 0 151.5 -48t58.5 -138zM389 340q0 63 -37 98t-101 35h-103v-268h50q34 0 58.5 2t51 10.5t43 22.5t27.5 39.5t11 60.5z" />
    <glyph glyph-name="germandbls" unicode="&#xdf;" horiz-adv-x="533" 
d="M499 126q0 -67 -42 -102t-109 -35q-68 0 -123 23l6 59q59 -31 116 -31q43 0 68.5 20.5t25.5 63.5q0 34 -22 59t-53.5 41.5l-62.5 34t-53 47t-22 70.5q0 69 52 101t127 35q0 73 -33.5 120t-105.5 47q-70 0 -104 -43.5t-34 -114.5v-521h-54v521q0 93 50 151.5t142 58.5
q96 0 144 -64t48 -164v-39q-92 -1 -126 -16q-48 -21 -48 -72q0 -26 22 -46.5t53 -37t62.5 -36t53.5 -52.5t22 -78z" />
    <glyph glyph-name="agrave" unicode="&#xe0;" horiz-adv-x="478" 
d="M269 585h-49l-92 136h70zM407 0h-53l-3 81q-19 -43 -62.5 -67.5t-91.5 -24.5q-70 0 -115.5 36t-45.5 104q0 90 75 131t201 41h34v26q0 63 -25 96t-86 33q-83 0 -141 -39l-6 56q70 34 145 34q88 0 127.5 -46.5t39.5 -137.5v-220q0 -55 7 -103zM346 222v31h-13
q-46 0 -79 -3.5t-74 -14.5t-63 -37.5t-22 -67.5q0 -44 30 -67t76 -23q145 0 145 182z" />
    <glyph glyph-name="aacute" unicode="&#xe1;" horiz-adv-x="478" 
d="M335 721l-93 -136h-48l71 136h70zM407 0h-53l-3 81q-19 -43 -62.5 -67.5t-91.5 -24.5q-70 0 -115.5 36t-45.5 104q0 90 75 131t201 41h34v26q0 63 -25 96t-86 33q-83 0 -141 -39l-6 56q70 34 145 34q88 0 127.5 -46.5t39.5 -137.5v-220q0 -55 7 -103zM346 222v31h-13
q-46 0 -79 -3.5t-74 -14.5t-63 -37.5t-22 -67.5q0 -44 30 -67t76 -23q145 0 145 182z" />
    <glyph glyph-name="acircumflex" unicode="&#xe2;" horiz-adv-x="478" 
d="M368 585h-57l-77 99l-77 -99h-57l103 136h62zM407 0h-53l-3 81q-19 -43 -62.5 -67.5t-91.5 -24.5q-70 0 -115.5 36t-45.5 104q0 90 75 131t201 41h34v26q0 63 -25 96t-86 33q-83 0 -141 -39l-6 56q70 34 145 34q88 0 127.5 -46.5t39.5 -137.5v-220q0 -55 7 -103zM346 222
v31h-13q-46 0 -79 -3.5t-74 -14.5t-63 -37.5t-22 -67.5q0 -44 30 -67t76 -23q145 0 145 182z" />
    <glyph glyph-name="atilde" unicode="&#xe3;" horiz-adv-x="478" 
d="M378 701q0 -33 -23.5 -63.5t-57.5 -30.5q-27 0 -61 20.5t-51 20.5q-18 0 -30.5 -15t-12.5 -31h-43q0 36 24 65t62 29q25 0 62 -20.5t50 -20.5q17 0 27.5 15t10.5 31h43zM407 0h-53l-3 81q-19 -43 -62.5 -67.5t-91.5 -24.5q-70 0 -115.5 36t-45.5 104q0 90 75 131t201 41
h34v26q0 63 -25 96t-86 33q-83 0 -141 -39l-6 56q70 34 145 34q88 0 127.5 -46.5t39.5 -137.5v-220q0 -55 7 -103zM346 222v31h-13q-46 0 -79 -3.5t-74 -14.5t-63 -37.5t-22 -67.5q0 -44 30 -67t76 -23q145 0 145 182z" />
    <glyph glyph-name="adieresis" unicode="&#xe4;" horiz-adv-x="478" 
d="M332 613h-54v80h54v-80zM188 613h-54v80h54v-80zM407 0h-53l-3 81q-19 -43 -62.5 -67.5t-91.5 -24.5q-70 0 -115.5 36t-45.5 104q0 90 75 131t201 41h34v26q0 63 -25 96t-86 33q-83 0 -141 -39l-6 56q70 34 145 34q88 0 127.5 -46.5t39.5 -137.5v-220q0 -55 7 -103z
M346 222v31h-13q-46 0 -79 -3.5t-74 -14.5t-63 -37.5t-22 -67.5q0 -44 30 -67t76 -23q145 0 145 182z" />
    <glyph glyph-name="aring" unicode="&#xe5;" horiz-adv-x="478" 
d="M325 653q0 -38 -27.5 -64.5t-66.5 -26.5t-66.5 26.5t-27.5 64.5t27.5 64.5t66.5 26.5t66.5 -26.5t27.5 -64.5zM407 0h-53l-3 81q-19 -43 -62.5 -67.5t-91.5 -24.5q-70 0 -115.5 36t-45.5 104q0 90 75 131t201 41h34v26q0 63 -25 96t-86 33q-83 0 -141 -39l-6 56
q70 34 145 34q88 0 127.5 -46.5t39.5 -137.5v-220q0 -55 7 -103zM292 653q0 25 -18 42.5t-43 17.5t-43 -17.5t-18 -42.5t18 -42.5t43 -17.5q26 0 43.5 17.5t17.5 42.5zM346 222v31h-13q-46 0 -79 -3.5t-74 -14.5t-63 -37.5t-22 -67.5q0 -44 30 -67t76 -23q145 0 145 182z
" />
    <glyph glyph-name="ae" unicode="&#xe6;" horiz-adv-x="776" 
d="M734 234h-333q0 -81 42 -137t121 -56q76 0 138 36l6 -61q-62 -26 -145 -26q-65 0 -115.5 26t-72.5 78q-26 -50 -74.5 -77.5t-105.5 -27.5q-70 0 -114.5 32t-44.5 98q0 163 276 163h34v45q0 63 -25 96t-86 33q-83 0 -141 -39l-6 56q70 34 145 34q120 0 154 -89
q26 41 68.5 65.5t89.5 24.5q95 0 142 -70t47 -174v-30zM675 282q0 70 -31.5 122.5t-97.5 52.5t-105.5 -57t-39.5 -118h274zM346 204v30h-15q-53 0 -91.5 -4.5t-73.5 -16t-53 -35t-18 -58.5q0 -38 32 -59t72 -21q76 0 111.5 43.5t35.5 120.5z" />
    <glyph glyph-name="ccedilla" unicode="&#xe7;" horiz-adv-x="434" 
d="M399 8q-49 -17 -104 -19l-31 -43q13 5 39 5q24 0 42.5 -16.5t18.5 -41.5q0 -33 -27.5 -51t-68.5 -18q-49 0 -89 18l13 27q40 -16 68 -16q21 0 36.5 10.5t15.5 25.5q0 16 -10 25t-24 9q-27 0 -46 -8l-8 15l41 59q-103 4 -161.5 78.5t-58.5 182.5q0 111 64 184t174 73
q56 0 116 -21l-5 -56q-53 25 -105 25q-90 0 -137.5 -57t-47.5 -148q0 -86 48 -147.5t132 -61.5q51 0 110 22z" />
    <glyph glyph-name="egrave" unicode="&#xe8;" horiz-adv-x="479" 
d="M284 585h-49l-92 136h70zM437 233h-333q0 -81 42 -137t121 -56q76 0 138 36l6 -61q-62 -26 -145 -26q-113 0 -167 72t-54 189q0 63 22.5 120.5t70.5 97t110 39.5q95 0 142 -70t47 -174v-30zM378 281q0 70 -31.5 122.5t-97.5 52.5t-105.5 -57t-39.5 -118h274z" />
    <glyph glyph-name="eacute" unicode="&#xe9;" horiz-adv-x="479" 
d="M350 721l-93 -136h-48l71 136h70zM437 233h-333q0 -81 42 -137t121 -56q76 0 138 36l6 -61q-62 -26 -145 -26q-113 0 -167 72t-54 189q0 63 22.5 120.5t70.5 97t110 39.5q95 0 142 -70t47 -174v-30zM378 281q0 70 -31.5 122.5t-97.5 52.5t-105.5 -57t-39.5 -118h274z" />
    <glyph glyph-name="ecircumflex" unicode="&#xea;" horiz-adv-x="479" 
d="M380 585h-57l-77 99l-77 -99h-57l103 136h62zM437 233h-333q0 -81 42 -137t121 -56q76 0 138 36l6 -61q-62 -26 -145 -26q-113 0 -167 72t-54 189q0 63 22.5 120.5t70.5 97t110 39.5q95 0 142 -70t47 -174v-30zM378 281q0 70 -31.5 122.5t-97.5 52.5t-105.5 -57
t-39.5 -118h274z" />
    <glyph glyph-name="edieresis" unicode="&#xeb;" horiz-adv-x="479" 
d="M346 613h-54v80h54v-80zM202 613h-54v80h54v-80zM437 233h-333q0 -81 42 -137t121 -56q76 0 138 36l6 -61q-62 -26 -145 -26q-113 0 -167 72t-54 189q0 63 22.5 120.5t70.5 97t110 39.5q95 0 142 -70t47 -174v-30zM378 281q0 70 -31.5 122.5t-97.5 52.5t-105.5 -57
t-39.5 -118h274z" />
    <glyph glyph-name="igrave" unicode="&#xec;" horiz-adv-x="206" 
d="M145 585h-48l-93 136h70zM130 0h-54v497h54v-497z" />
    <glyph glyph-name="iacute" unicode="&#xed;" horiz-adv-x="206" 
d="M202 721l-92 -136h-49l71 136h70zM130 0h-54v497h54v-497z" />
    <glyph glyph-name="icircumflex" unicode="&#xee;" horiz-adv-x="206" 
d="M237 585h-57l-77 99l-77 -99h-57l103 136h62zM130 0h-54v497h54v-497z" />
    <glyph glyph-name="idieresis" unicode="&#xef;" horiz-adv-x="206" 
d="M202 613h-54v80h54v-80zM58 613h-54v80h54v-80zM130 0h-54v497h54v-497z" />
    <glyph glyph-name="eth" unicode="&#xf0;" horiz-adv-x="540" 
d="M495 283q0 -128 -56 -211t-169 -83q-108 0 -166.5 71.5t-58.5 182.5q0 109 60.5 180.5t167.5 71.5q95 0 155 -77q-26 118 -112 189l-105 -64l-28 39l91 56q-53 37 -134 54l27 39q77 -8 153 -61l98 61l28 -40l-84 -52q133 -124 133 -356zM436 243q0 86 -41.5 143
t-124.5 57q-81 0 -123.5 -58t-42.5 -142t42.5 -143t123.5 -59t123.5 59t42.5 143z" />
    <glyph glyph-name="ntilde" unicode="&#xf1;" horiz-adv-x="526" 
d="M404 701q0 -33 -23.5 -63.5t-57.5 -30.5q-27 0 -61 20.5t-51 20.5q-18 0 -30.5 -15t-12.5 -31h-43q0 36 24 65t62 29q25 0 62 -20.5t50 -20.5q17 0 27.5 15t10.5 31h43zM450 0h-54v296q0 74 -25 116.5t-94 42.5q-77 0 -112 -54t-35 -135v-266h-54v379q0 69 -5 118h49
l3 -87q55 97 161 97q166 0 166 -203v-304z" />
    <glyph glyph-name="ograve" unicode="&#xf2;" horiz-adv-x="540" 
d="M307 585h-49l-92 136h70zM495 250q0 -111 -58.5 -186t-166.5 -75q-109 0 -167 75t-58 186q0 108 60.5 182.5t164.5 74.5q110 0 167.5 -72t57.5 -185zM436 250q0 87 -41 146t-125 59q-82 0 -124 -60t-42 -145q0 -84 42 -146.5t124 -62.5t124 62t42 147z" />
    <glyph glyph-name="oacute" unicode="&#xf3;" horiz-adv-x="540" 
d="M372 721l-93 -136h-48l71 136h70zM495 250q0 -111 -58.5 -186t-166.5 -75q-109 0 -167 75t-58 186q0 108 60.5 182.5t164.5 74.5q110 0 167.5 -72t57.5 -185zM436 250q0 87 -41 146t-125 59q-82 0 -124 -60t-42 -145q0 -84 42 -146.5t124 -62.5t124 62t42 147z" />
    <glyph glyph-name="ocircumflex" unicode="&#xf4;" horiz-adv-x="540" 
d="M403 585h-57l-77 99l-77 -99h-57l103 136h62zM495 250q0 -111 -58.5 -186t-166.5 -75q-109 0 -167 75t-58 186q0 108 60.5 182.5t164.5 74.5q110 0 167.5 -72t57.5 -185zM436 250q0 87 -41 146t-125 59q-82 0 -124 -60t-42 -145q0 -84 42 -146.5t124 -62.5t124 62t42 147
z" />
    <glyph glyph-name="otilde" unicode="&#xf5;" horiz-adv-x="540" 
d="M409 701q0 -33 -23.5 -63.5t-57.5 -30.5q-27 0 -61 20.5t-51 20.5q-18 0 -30.5 -15t-12.5 -31h-43q0 36 24 65t62 29q25 0 62.5 -20.5t49.5 -20.5q17 0 27.5 15t10.5 31h43zM495 250q0 -111 -58.5 -186t-166.5 -75q-109 0 -167 75t-58 186q0 108 60.5 182.5t164.5 74.5
q110 0 167.5 -72t57.5 -185zM436 250q0 87 -41 146t-125 59q-82 0 -124 -60t-42 -145q0 -84 42 -146.5t124 -62.5t124 62t42 147z" />
    <glyph glyph-name="odieresis" unicode="&#xf6;" horiz-adv-x="540" 
d="M368 613h-54v80h54v-80zM224 613h-54v80h54v-80zM495 250q0 -111 -58.5 -186t-166.5 -75q-109 0 -167 75t-58 186q0 108 60.5 182.5t164.5 74.5q110 0 167.5 -72t57.5 -185zM436 250q0 87 -41 146t-125 59q-82 0 -124 -60t-42 -145q0 -84 42 -146.5t124 -62.5t124 62
t42 147z" />
    <glyph glyph-name="divide" unicode="&#xf7;" 
d="M312 418q0 -20 -14 -33.5t-33 -13.5t-32.5 14t-13.5 33q0 20 13.5 33.5t32.5 13.5t33 -13.5t14 -33.5zM514 216h-497v49h497v-49zM312 63q0 -19 -14 -33t-33 -14t-32.5 13.5t-13.5 33.5q0 19 13.5 33t32.5 14t33 -14t14 -33z" />
    <glyph glyph-name="oslash" unicode="&#xf8;" horiz-adv-x="540" 
d="M512 501l-65 -77q49 -68 49 -174q0 -111 -58.5 -186t-166.5 -75q-90 0 -148 55l-61 -72l-34 23l68 80q-50 69 -50 175q0 109 59 183t166 74q91 0 148 -52l59 69zM383 412q-41 43 -112 43q-82 0 -124 -60t-42 -145q0 -72 31 -128zM437 250q0 76 -29 128l-248 -290
q44 -47 111 -47q82 0 124 62t42 147z" />
    <glyph glyph-name="ugrave" unicode="&#xf9;" horiz-adv-x="522" 
d="M299 585h-49l-92 136h70zM451 0h-49l-3 86q-55 -97 -160 -97q-165 0 -165 204v304h54v-296q0 -75 24.5 -117.5t93.5 -42.5q77 0 111.5 54.5t34.5 135.5v266h54v-379q0 -69 5 -118z" />
    <glyph glyph-name="uacute" unicode="&#xfa;" horiz-adv-x="522" 
d="M364 721l-93 -136h-48l71 136h70zM451 0h-49l-3 86q-55 -97 -160 -97q-165 0 -165 204v304h54v-296q0 -75 24.5 -117.5t93.5 -42.5q77 0 111.5 54.5t34.5 135.5v266h54v-379q0 -69 5 -118z" />
    <glyph glyph-name="ucircumflex" unicode="&#xfb;" horiz-adv-x="522" 
d="M395 585h-57l-77 99l-77 -99h-57l103 136h62zM451 0h-49l-3 86q-55 -97 -160 -97q-165 0 -165 204v304h54v-296q0 -75 24.5 -117.5t93.5 -42.5q77 0 111.5 54.5t34.5 135.5v266h54v-379q0 -69 5 -118z" />
    <glyph glyph-name="udieresis" unicode="&#xfc;" horiz-adv-x="522" 
d="M360 613h-54v80h54v-80zM216 613h-54v80h54v-80zM451 0h-49l-3 86q-55 -97 -160 -97q-165 0 -165 204v304h54v-296q0 -75 24.5 -117.5t93.5 -42.5q77 0 111.5 54.5t34.5 135.5v266h54v-379q0 -69 5 -118z" />
    <glyph glyph-name="yacute" unicode="&#xfd;" horiz-adv-x="427" 
d="M331 721l-93 -136h-48l71 136h70zM415 497l-204 -592q-45 -132 -131 -132q-21 0 -49 7l6 54q25 -9 42 -9q57 0 95 123l11 35l-172 514h61l141 -441l142 441h58z" />
    <glyph glyph-name="thorn" unicode="&#xfe;" horiz-adv-x="529" 
d="M484 250q0 -68 -18.5 -124.5t-65.5 -96.5t-117 -40q-50 0 -92.5 24.5t-60.5 67.5v-297h-54v937h54v-308q18 42 61.5 68t91.5 26q55 0 95.5 -21t62.5 -58.5t32.5 -81.5t10.5 -96zM425 250q0 40 -6.5 74t-22 65t-45.5 48.5t-73 17.5q-75 0 -112.5 -62.5t-37.5 -142.5
q0 -51 13.5 -96t49 -79t87.5 -34q42 0 72 18.5t45.5 50.5t22.5 66.5t7 73.5z" />
    <glyph glyph-name="ydieresis" unicode="&#xff;" horiz-adv-x="427" 
d="M316 613h-54v80h54v-80zM172 613h-54v80h54v-80zM415 497l-204 -592q-45 -132 -131 -132q-21 0 -49 7l6 54q25 -9 42 -9q57 0 95 123l11 35l-172 514h61l141 -441l142 441h58z" />
    <glyph glyph-name="dotlessi" unicode="&#x131;" horiz-adv-x="206" 
d="M130 0h-54v497h54v-497z" />
    <glyph glyph-name="Lslash" unicode="&#x141;" horiz-adv-x="431" 
d="M413 0h-325v296l-73 -76v60l73 76v311h60v-253l133 138v-61l-133 -138v-299h265v-54z" />
    <glyph glyph-name="lslash" unicode="&#x142;" horiz-adv-x="206" 
d="M199 455l-68 -71v-384h-55v330l-67 -71v60l67 71v331h55v-277l68 71v-60z" />
    <glyph glyph-name="OE" unicode="&#x152;" horiz-adv-x="854" 
d="M806 0h-333q-57 -11 -127 -11q-145 0 -218.5 97.5t-73.5 246.5q0 144 76 244t216 100q73 0 127 -10h322v-54h-258v-243h244v-52h-244v-264h269v-54zM477 55v556q-62 10 -131 10q-77 0 -131 -43.5t-77 -107t-23 -137.5t23.5 -137.5t77.5 -107t130 -43.5q84 0 131 10z" />
    <glyph glyph-name="oe" unicode="&#x153;" horiz-adv-x="868" 
d="M825 233h-333q0 -81 42 -137t121 -56q76 0 138 36l6 -61q-62 -26 -145 -26q-138 0 -192 114q-61 -114 -192 -114q-109 0 -167 75t-58 186q0 108 60.5 182.5t164.5 74.5q138 0 195 -114q56 114 171 114q95 0 142 -70t47 -174v-30zM766 281q0 70 -31.5 122.5t-97.5 52.5
t-105.5 -57t-39.5 -118h274zM436 250q0 87 -41 146t-125 59q-82 0 -124 -60t-42 -145q0 -84 42 -146.5t124 -62.5t124 62t42 147z" />
    <glyph glyph-name="Scaron" unicode="&#x160;" horiz-adv-x="465" 
d="M368 860l-103 -136h-62l-103 136h57l77 -99l76 99h58zM418 176q0 -86 -62 -136.5t-155 -50.5q-86 0 -147 28l5 66q58 -38 145 -38q69 0 110 33t41 99q0 43 -30 72t-89 62l-69 39q-55 31 -86.5 67t-31.5 89q0 81 62 126t147 45q69 0 125 -21l-6 -60q-45 25 -121 25
q-62 0 -103.5 -27t-41.5 -85q0 -37 25 -63.5t74 -53.5l69 -39q65 -36 102 -76t37 -101z" />
    <glyph glyph-name="scaron" unicode="&#x161;" horiz-adv-x="373" 
d="M322 721l-102 -136h-61l-103 136h57l77 -99l75 99h57zM335 130q0 -65 -48.5 -103t-115.5 -38q-79 0 -135 22l6 61q60 -31 126 -31q44 0 76 23.5t32 65.5q0 35 -24.5 59t-59 39l-69.5 31.5t-59.5 45.5t-24.5 70q0 64 47 98t112 34q60 0 117 -22l-6 -53q-49 23 -106 23
q-106 0 -106 -80q0 -26 24.5 -45.5t59.5 -35t70 -33.5t59.5 -51.5t24.5 -79.5z" />
    <glyph glyph-name="Ydieresis" unicode="&#x178;" horiz-adv-x="562" 
d="M381 752h-54v80h54v-80zM237 752h-54v80h54v-80zM558 667l-248 -381v-286h-60v286l-246 381h68l210 -330l210 330h66z" />
    <glyph glyph-name="Zcaron" unicode="&#x17d;" horiz-adv-x="475" 
d="M369 860l-102 -136h-61l-103 136h57l77 -99l75 99h57zM449 0h-423v51l350 562h-338v54h403v-51l-348 -562h356v-54z" />
    <glyph glyph-name="zcaron" unicode="&#x17e;" horiz-adv-x="407" 
d="M341 721l-102 -136h-61l-103 136h57l77 -99l75 99h57zM377 0h-347v44l284 405h-272v48h334v-45l-285 -404h286v-48z" />
    <glyph glyph-name="florin" unicode="&#x192;" 
d="M459 668l-6 -53q-32 8 -47 8q-22 0 -38.5 -10t-27 -29.5t-15.5 -36t-11 -42.5l-24 -105h108v-48h-118l-78 -373q-8 -39 -17 -67.5t-26 -64t-45 -55t-64 -19.5q-33 0 -62 4l6 54q17 -4 46 -4q73 0 105 157l77 368h-108v48h118l25 111q9 37 17.5 62t25 51.5t43.5 39.5
t64 13q21 0 52 -9z" />
    <glyph glyph-name="circumflex" unicode="&#x2c6;" horiz-adv-x="206" 
d="M237 585h-57l-77 99l-77 -99h-57l103 136h62z" />
    <glyph glyph-name="caron" unicode="&#x2c7;" horiz-adv-x="206" 
d="M237 721l-103 -136h-62l-103 136h57l77 -99l77 99h57z" />
    <glyph glyph-name="breve" unicode="&#x2d8;" horiz-adv-x="206" 
d="M215 708q0 -11 -4 -26.5t-14.5 -36.5t-35 -35.5t-58.5 -14.5t-58 14.5t-34.5 35.5t-15 36.5t-4.5 26.5h36q4 -32 24 -52t52 -20t52 20t24 52h36z" />
    <glyph glyph-name="dotaccent" unicode="&#x2d9;" horiz-adv-x="206" 
d="M130 613h-54v80h54v-80z" />
    <glyph glyph-name="ring" unicode="&#x2da;" horiz-adv-x="206" 
d="M197 653q0 -38 -27.5 -64.5t-66.5 -26.5t-66.5 26.5t-27.5 64.5t27.5 64.5t66.5 26.5t66.5 -26.5t27.5 -64.5zM164 653q0 25 -18 42.5t-43 17.5t-43 -17.5t-18 -42.5t18 -42.5t43 -17.5q26 0 43.5 17.5t17.5 42.5z" />
    <glyph glyph-name="ogonek" unicode="&#x2db;" horiz-adv-x="206" 
d="M190 -156q-38 -20 -77 -20q-40 0 -66 20.5t-26 56.5q0 58 91 99h36q-75 -46 -75 -97q0 -24 14.5 -36.5t33.5 -12.5q31 0 58 18z" />
    <glyph glyph-name="tilde" unicode="&#x2dc;" horiz-adv-x="206" 
d="M242 701q0 -33 -23.5 -63.5t-57.5 -30.5q-27 0 -60.5 20.5t-50.5 20.5q-18 0 -30.5 -15t-12.5 -31h-43q0 36 24 65t62 29q24 0 61 -20.5t50 -20.5q17 0 27.5 15t10.5 31h43z" />
    <glyph glyph-name="hungarumlaut" unicode="&#x2dd;" horiz-adv-x="206" 
d="M252 721l-92 -136h-49l71 136h70zM95 721l-92 -136h-49l71 136h70z" />
    <glyph glyph-name="Omega" unicode="&#x3a9;" horiz-adv-x="750" 
d="M671 0h-259v172q88 0 144.5 66.5t56.5 156.5q0 95 -71.5 163.5t-166.5 68.5t-166.5 -68.5t-71.5 -163.5q0 -90 56.5 -156.5t144.5 -66.5v-172h-259v52h205v80q-90 17 -147.5 94.5t-57.5 171.5q0 117 89 198t207 81t207 -81t89 -198q0 -94 -57.5 -171.5t-147.5 -94.5v-80
h205v-52z" />
    <glyph glyph-name="pi" unicode="&#x3c0;" horiz-adv-x="650" 
d="M517 7q-33 -18 -63 -18q-40 0 -56 22.5t-16 64.5v348h-153v-424h-54v424h-70v52h412v-52h-81v-341q0 -14 1.5 -22t8 -15t19.5 -7t52 18v-50z" />
    <glyph glyph-name="endash" unicode="&#x2013;" horiz-adv-x="500" 
d="M500 287h-500v46h500v-46z" />
    <glyph glyph-name="emdash" unicode="&#x2014;" horiz-adv-x="1000" 
d="M1000 287h-1000v46h1000v-46z" />
    <glyph glyph-name="quoteleft" unicode="&#x2018;" horiz-adv-x="265" 
d="M193 721l-58 -208h-71l80 208h49z" />
    <glyph glyph-name="quoteright" unicode="&#x2019;" horiz-adv-x="265" 
d="M201 721l-80 -208h-49l58 208h71z" />
    <glyph glyph-name="quotesinglbase" unicode="&#x201a;" horiz-adv-x="265" 
d="M169 80l-80 -208h-49l58 208h71z" />
    <glyph glyph-name="quotedblleft" unicode="&#x201c;" horiz-adv-x="429" 
d="M357 721l-58 -208h-70l80 208h48zM193 721l-58 -208h-71l80 208h49z" />
    <glyph glyph-name="quotedblright" unicode="&#x201d;" horiz-adv-x="429" 
d="M365 721l-80 -208h-49l58 208h71zM201 721l-80 -208h-49l58 208h71z" />
    <glyph glyph-name="quotedblbase" unicode="&#x201e;" horiz-adv-x="429" 
d="M333 80l-80 -208h-48l58 208h70zM169 80l-80 -208h-49l58 208h71z" />
    <glyph glyph-name="dagger" unicode="&#x2020;" 
d="M471 434h-176v-562h-60v562h-176v54h176v233h60v-233h176v-54z" />
    <glyph glyph-name="daggerdbl" unicode="&#x2021;" 
d="M471 105h-176v-233h-60v233h-176v54h176v275h-176v54h176v233h60v-233h176v-54h-176v-275h176v-54z" />
    <glyph glyph-name="bullet" unicode="&#x2022;" 
d="M372 310q0 -44 -31.5 -75.5t-75.5 -31.5t-75.5 31.5t-31.5 75.5t31.5 75.5t75.5 31.5t75.5 -31.5t31.5 -75.5z" />
    <glyph glyph-name="ellipsis" unicode="&#x2026;" horiz-adv-x="1000" 
d="M870 0h-73v80h73v-80zM537 0h-73v80h73v-80zM203 0h-73v80h73v-80z" />
    <glyph glyph-name="perthousand" unicode="&#x2030;" horiz-adv-x="1190" 
d="M1137 195q0 -37 -7.5 -70.5t-23.5 -65.5t-47.5 -51t-74.5 -19q-145 0 -145 206q0 37 6.5 70t21 65.5t45 51.5t72.5 19q43 0 74.5 -19t47.5 -51t23.5 -65.5t7.5 -70.5zM799 195q0 -38 -6.5 -71t-22 -65t-46.5 -51t-74 -19q-44 0 -75 18.5t-46.5 51t-21.5 65.5t-6 71
q0 37 7 70.5t22.5 65.5t46.5 51t73 19q43 0 74 -19t46.5 -51t22 -65.5t6.5 -70.5zM665 691l-424 -715h-52l424 715h52zM351 471q0 -38 -6.5 -71t-22 -65t-46.5 -51t-74 -19q-44 0 -75 18.5t-46.5 51t-21.5 65.5t-6 71q0 37 7 70.5t22.5 65.5t46.5 51t73 19q43 0 74 -19
t46.5 -51t22 -65.5t6.5 -70.5zM1082 195q0 157 -98 157q-30 0 -50 -15t-27.5 -42.5t-10 -49t-2.5 -50.5q0 -20 0.5 -33t3 -34t8.5 -34.5t15.5 -27.5t25.5 -21t37 -7q98 0 98 157zM744 195q0 157 -94 157t-94 -157t94 -157t94 157zM296 471q0 157 -94 157t-94 -157t94 -157
t94 157z" />
    <glyph glyph-name="guilsinglleft" unicode="&#x2039;" horiz-adv-x="257" 
d="M215 55h-52l-131 199l131 198h52l-125 -198z" />
    <glyph glyph-name="guilsinglright" unicode="&#x203a;" horiz-adv-x="257" 
d="M225 254l-130 -199h-53l125 199l-125 198h53z" />
    <glyph glyph-name="fraction" unicode="&#x2044;" horiz-adv-x="168" 
d="M322 691l-424 -715h-52l424 715h52z" />
    <glyph glyph-name="Euro" unicode="&#x20ac;" 
d="M501 649l-11 -54q-48 27 -110 27q-83 0 -133.5 -55.5t-66.5 -142.5h276l-10 -48h-272q-2 -28 -2 -43t2 -43h256l-10 -48h-240q15 -87 65.5 -142.5t134.5 -55.5q69 0 111 26l6 -56q-39 -25 -118 -25q-109 0 -176 70.5t-85 182.5h-89l10 48h73q-2 28 -2 44t2 42h-82l10 48
h79q19 109 87 181t173 72q70 0 122 -28z" />
    <glyph glyph-name="trademark" unicode="&#x2122;" horiz-adv-x="891" 
d="M835 266h-52v362l-152 -362h-50l-154 362v-362h-50v401h81l150 -347l146 347h81v-401zM316 626h-130v-360h-52v360h-129v41h311v-41z" />
    <glyph glyph-name="partialdiff" unicode="&#x2202;" 
d="M472 364q0 -46 -5.5 -93t-21 -99.5t-39 -92.5t-64 -66t-91.5 -26q-88 0 -140.5 68.5t-52.5 158.5q0 89 51 147.5t139 58.5q92 0 168 -78v30q0 39 -3.5 75.5t-14.5 81t-29 76.5t-50 54t-75 22q-73 0 -119 -52l-30 38q65 53 139 53q53 0 95.5 -23t68.5 -59t43.5 -84t24 -95
t6.5 -95zM414 303q-76 80 -154 80q-72 0 -111 -52t-39 -127q0 -70 38.5 -125t105.5 -55q36 0 64 21t44 49t27.5 71.5t16 71.5t8.5 66z" />
    <glyph glyph-name="Delta" unicode="&#x2206;" horiz-adv-x="750" 
d="M691 0h-632l283 667h66zM615 48l-240 565l-240 -565h480z" />
    <glyph glyph-name="product" unicode="&#x220f;" horiz-adv-x="750" 
d="M637 -200h-54v948h-415v-948h-54v1000h523v-1000z" />
    <glyph glyph-name="summation" unicode="&#x2211;" horiz-adv-x="750" 
d="M684 -200h-601v51l273 457l-253 445v47h563v-46h-501l256 -446l-276 -456h539v-52z" />
    <glyph glyph-name="minus" unicode="&#x2212;" 
d="M514 217h-497v48h497v-48z" />
    <glyph glyph-name="radical" unicode="&#x221a;" 
d="M489 800l-176 -1000h-48l-160 352l-45 -21l-19 36l91 41l154 -343l161 935h42z" />
    <glyph glyph-name="infinity" unicode="&#x221e;" horiz-adv-x="750" 
d="M690 244q0 -63 -43 -107.5t-106 -44.5q-55 0 -89.5 27.5t-73.5 84.5q-39 -53 -76 -80.5t-90 -27.5q-63 0 -107 42.5t-44 105.5q0 64 42.5 108t106.5 44q86 0 163 -113q25 31 35 42.5t32 31.5t45 27.5t51 7.5q65 0 109.5 -42t44.5 -106zM646 243q0 42 -30 73.5t-71 31.5
q-10 0 -20.5 -3.5t-19.5 -8t-20 -13.5t-18 -15.5t-18 -18.5l-16 -17.5t-15.5 -18.5t-12.5 -15q2 -2 11.5 -15t12.5 -16.5l12.5 -15t14 -15.5l14 -12.5t16.5 -12l16.5 -8.5t19 -6.5t20.5 -1.5q43 0 73.5 32.5t30.5 75.5zM346 250q-24 32 -38 48.5t-42.5 35.5t-56.5 19
q-43 0 -74 -31.5t-31 -75.5q0 -43 30 -74.5t73 -31.5q22 0 44 12.5t34.5 26t32.5 38t28 33.5z" />
    <glyph glyph-name="integral" unicode="&#x222b;" 
d="M421 775l-6 -52q-21 10 -47 10q-74 0 -73 -107v-4v-682q0 -24 -1.5 -42t-9 -43.5t-20.5 -41.5t-39 -28t-61 -12q-37 0 -55 10l6 52q21 -10 47 -10q74 0 73 107v4v682q0 24 1.5 42t9 43.5t20.5 41.5t39 28t61 12q38 0 55 -10z" />
    <glyph glyph-name="approxequal" unicode="&#x2248;" 
d="M526 390q-4 -55 -34.5 -92t-83.5 -37q-49 0 -146.5 37t-136.5 37q-33 0 -55 -24t-27 -59h-39q11 60 38 95.5t83 35.5q48 0 144.5 -37t137.5 -37q64 0 83 81h36zM526 229q-4 -55 -34.5 -92t-83.5 -37q-49 0 -146.5 37t-136.5 37q-33 0 -55 -24t-27 -59h-39q11 60 38 95.5
t83 35.5q48 0 144.5 -37t137.5 -37q64 0 83 81h36z" />
    <glyph glyph-name="notequal" unicode="&#x2260;" 
d="M514 125h-288l-75 -141l-42 23l64 118h-156v48h182l71 135h-253v48h280l77 145l42 -22l-66 -123h164v-48h-190l-72 -135h262v-48z" />
    <glyph glyph-name="lessequal" unicode="&#x2264;" 
d="M514 68l-497 192v54l497 193v-54l-431 -166l431 -166v-53zM514 -25h-497v48h497v-48z" />
    <glyph glyph-name="greaterequal" unicode="&#x2265;" 
d="M514 260l-497 -192v53l430 166l-430 166v54l497 -193v-54zM514 -25h-497v48h497v-48z" />
    <glyph glyph-name="lozenge" unicode="&#x25ca;" 
d="M460 400l-169 -400h-53l-167 400l167 400h53zM406 400l-141 344l-141 -344l141 -344z" />
    </font>
</defs>
</svg>
